<?xml version="1.0" encoding="UTF-8"?>
<!DOCTYPE svg PUBLIC "-//W3C//DTD SVG 1.1//EN" "http://www.w3.org/Graphics/SVG/1.1/DTD/svg11.dtd">
<!-- Creator: CorelDRAW 2018 (64 Bit) -->
<svg xmlns="http://www.w3.org/2000/svg" xml:space="preserve" width="128.826mm" height="47.4752mm" version="1.1" style="shape-rendering:geometricPrecision; text-rendering:geometricPrecision; image-rendering:optimizeQuality; fill-rule:evenodd; clip-rule:evenodd"
viewBox="0 0 12923.33 4762.54"
 xmlns:xlink="http://www.w3.org/1999/xlink">
 <defs>
  <style type="text/css">
   <![CDATA[
    .fil5 {fill:#373435}
    .fil3 {fill:#FFCC29}
    .fil1 {fill:#ED3237}
    .fil2 {fill:#51A8B1}
    .fil4 {fill:#00ACE4}
    .fil6 {fill:#FEFEFE;fill-rule:nonzero}
    .fil8 {fill:#FFCC29;fill-rule:nonzero}
    .fil7 {fill:#ED3237;fill-rule:nonzero}
    .fil0 {fill:#072967;fill-rule:nonzero}
   ]]>
  </style>
 </defs>
 <g id="Camada_x0020_1">
  <metadata id="CorelCorpID_0Corel-Layer"/>
  <g id="_2446902958592">
   <path class="fil0" d="M3062.94 2990.03c0,9.58 -3.88,18.21 -11.73,25.81 -7.09,7.59 -20.09,13.63 -37.65,18.73 -18.23,4.49 -42.88,8.55 -74.03,11.05 -31.3,2.58 -69.62,3.54 -115.11,3.54 -47.44,0 -86.43,-0.96 -117.58,-3.54 -31.23,-2.51 -55.88,-6.56 -74.1,-11.05 -17.63,-5.1 -30.56,-11.14 -37.65,-18.73 -7.92,-7.6 -11.81,-16.23 -11.81,-25.81l0 -754.24c0,-64.23 -5.83,-114.81 -18.15,-151.24 -11.66,-36.94 -29.28,-68.28 -51.99,-94.09 -22.78,-26.32 -52.6,-46.53 -88.45,-61.2 -36.38,-14.15 -77.92,-21.24 -126.03,-21.24 -61.02,0 -122.14,17.18 -184.58,52.13 -61.78,34.36 -126.77,84.95 -193.63,150.72l0 879.15c0,9.58 -3.88,18.21 -11.73,25.81 -7.1,7.59 -20.09,13.63 -38.99,18.73 -18.16,4.49 -42.89,8.55 -72.84,11.05 -30.48,2.58 -69.55,3.54 -116.31,3.54 -46.84,0 -85.76,-0.96 -116.32,-3.54 -29.87,-2.51 -54.6,-6.56 -72.76,-11.05 -18.9,-5.1 -31.82,-11.14 -39.06,-18.73 -7.77,-7.6 -11.66,-16.23 -11.66,-25.81l0 -1323.26c0,-9.66 3.21,-18.21 9.79,-25.8 5.82,-7.59 17.48,-13.64 33.84,-18.73 16.8,-4.57 37.65,-8.63 63.64,-11.14 25.92,-2.51 59.1,-3.54 98.16,-3.54 40.87,0 74.03,1.03 100.7,3.54 26.59,2.51 47.44,6.56 62.38,11.14 14.35,5.09 24.66,11.14 31.23,18.73 6.5,7.59 9.71,16.14 9.71,25.8l0 152.71c93.61,-78.9 189.08,-137.59 286.56,-177.04 96.89,-39.45 198.33,-59.14 303.59,-59.14 115.63,0 213.12,14.67 292.45,44.46 79.26,29.34 142.91,69.83 192.37,120.92 48.7,50.59 83.88,110.32 105.25,178.59 21.44,68.28 32.49,150.19 32.49,245.84l0 816.92zm1454.68 -130c0,43.51 -3.29,76.91 -10.38,100.14 -7.24,23.3 -16.36,39.44 -28.01,48.59 -11.06,9.58 -27.95,18.21 -49.98,25.29 -22.86,7.59 -48.78,14.15 -78.74,19.17 -29.21,5.61 -61.7,9.66 -96.82,12.68 -35.03,3.03 -70.22,4.57 -105.92,4.57 -94.8,0 -177.42,-9.66 -247.64,-28.39 -69.55,-18.65 -127.29,-47.48 -173.46,-86.49 -45.57,-38.93 -79.26,-87.97 -100.78,-147.69 -21.44,-59.14 -32.49,-129.48 -32.49,-210.44l0 -677.27 -205.95 0c-24.06,0 -42.96,-11.65 -55.28,-34.95 -13.07,-23.22 -19.5,-62.23 -19.5,-116.8 0,-28.83 1.27,-53.16 4.56,-72.85 3.21,-19.76 8.44,-35.46 14.94,-47.04 5.83,-11.14 14.26,-19.25 23.98,-24.34 9.12,-5.02 20.85,-7.59 33.17,-7.59l204.08 0 0 -295.9c0,-9.58 3.29,-18.73 10.38,-26.76 7.24,-7.59 20.17,-14.15 38.4,-19.76 18.15,-5.53 43.55,-9.58 74.7,-12.09 31.23,-2.59 69.55,-3.61 115.71,-3.61 46.77,0 85.76,1.02 116.99,3.61 31.15,2.51 55.88,6.56 74.1,12.09 17.48,5.61 30.48,12.17 37.72,19.76 7.77,8.04 11.59,17.18 11.59,26.76l0 295.9 368.57 0c12.93,0 24.06,2.58 33.17,7.59 9.71,5.09 17.48,13.2 24.06,24.34 6.42,11.58 10.97,27.28 14.18,47.04 3.29,19.69 4.63,44.02 4.63,72.85 0,54.57 -6.5,93.58 -18.82,116.8 -13.08,23.3 -31.31,34.95 -55.35,34.95l-370.45 0 0 621.15c0,72.34 14.34,126.46 43.62,162.37 29.29,35.9 81.21,54.12 155.91,54.12 25.39,0 48.18,-1.55 68.35,-5.09 20.02,-3.54 38.25,-7.52 53.86,-12.1 16.21,-4.05 29.28,-8.11 40.27,-11.65 10.46,-3.54 20.85,-5.09 29.28,-5.09 7.77,0 14.95,1.54 22.11,5.09 6.5,3.54 12.41,10.1 16.29,20.72 3.21,10.1 7.09,24.34 10.3,42.03 3.29,18.21 4.63,40.41 4.63,68.28zm1880.26 -569.61c0,45.57 -13.08,78.9 -39.07,100.65 -25.92,21.76 -61.77,32.89 -107.87,32.89l-1034.62 0c0,56.19 8.44,106.77 25.92,152.77 16.95,45.57 44.3,84.51 81.28,116.36 37.72,31.86 85.75,56.12 145,72.85 59.09,16.67 129.31,25.3 211.78,25.3 83.89,0 157.33,-4.57 221.05,-14.16 62.97,-9.66 118.25,-19.76 164.34,-31.41 46.17,-11.58 84.57,-21.75 115.04,-31.34 30.63,-9.58 55.35,-14.15 74.1,-14.15 11.73,0 21.52,1.54 28.61,5.09 7.84,3.54 14.28,9.59 19.5,18.66 4.55,8.63 8.44,21.31 10.38,37.46 1.95,16.22 2.62,36.94 2.62,61.19 0,21.76 -0.67,40.49 -1.95,55.68 -1.27,15.19 -3.29,28.31 -5.83,38.93 -2.62,11.14 -5.9,20.2 -11.13,27.28 -5.16,7.6 -11.66,14.68 -20.1,21.76 -8.37,6.63 -30.55,16.22 -67.6,28.39 -37.05,12.09 -83.81,23.73 -140.96,35.39 -57.22,11.65 -122.21,21.75 -195.64,30.31 -73.51,8.63 -152.17,13.2 -235.98,13.2 -151.35,0 -283.35,-14.68 -397.04,-44.54 -113.11,-29.35 -207.98,-74.32 -284.7,-134.56 -76.04,-60.17 -132.52,-136.56 -170.25,-228.14 -37.05,-92.02 -55.88,-199.75 -55.88,-323.19 0,-117.38 19.5,-223.12 59.1,-317.65 39.06,-94.09 96.21,-174.02 171.59,-239.79 74.78,-65.78 165.68,-115.84 272.96,-150.27 107.87,-34.88 228.73,-52.05 363.28,-52.05 142.38,0 263.84,16.14 364.62,49.03 101.37,32.36 183.92,77.94 248.91,135.6 64.32,57.66 112.42,126.46 142.98,205.35 30.56,78.9 45.57,164.88 45.57,258l0 59.14zm-464.05 -106.17c3.88,-104.71 -23.38,-187.22 -81.28,-246.87 -57.89,-60.24 -146.86,-90.03 -267.73,-90.03 -61.1,0 -114.44,9.07 -159.26,26.76 -45.42,17.7 -83.14,41.52 -113.1,71.83 -29.81,30.38 -52.6,65.77 -68.21,106.77 -16.29,41.44 -25.4,84.94 -27.94,131.54l717.51 0zm1353.9 805.78c0,9.58 -3.88,18.21 -11.8,25.81 -7.1,7.59 -20.02,13.63 -38.92,18.73 -18.16,4.49 -42.88,8.55 -72.84,11.05 -30.48,2.58 -69.54,3.54 -116.31,3.54 -46.84,0 -85.76,-0.96 -116.39,-3.54 -29.8,-2.51 -54.53,-6.56 -72.76,-11.05 -18.83,-5.1 -31.82,-11.14 -38.99,-18.73 -7.77,-7.6 -11.66,-16.23 -11.66,-25.81l0 -1950.01c0,-10.1 3.88,-18.73 11.66,-26.84 7.17,-7.59 20.16,-14.68 38.99,-19.68 18.23,-5.61 42.96,-9.66 72.76,-12.69 30.63,-3.02 69.55,-4.49 116.39,-4.49 46.77,0 85.83,1.47 116.31,4.49 29.96,3.03 54.68,7.08 72.84,12.69 18.9,5.01 31.82,12.09 38.92,19.68 7.91,8.12 11.8,16.74 11.8,26.84l0 1950.01zm2114.82 0c0,9.58 -3.88,18.21 -11.73,25.81 -7.09,7.59 -20.09,13.63 -37.58,18.73 -18.3,4.49 -42.95,8.55 -74.1,11.05 -31.22,2.58 -69.62,3.54 -115.11,3.54 -47.44,0 -86.35,-0.96 -117.58,-3.54 -31.23,-2.51 -55.88,-6.56 -74.03,-11.05 -17.63,-5.1 -30.63,-11.14 -37.72,-18.73 -7.84,-7.6 -11.73,-16.23 -11.73,-25.81l0 -754.24c0,-64.23 -5.91,-114.81 -18.23,-151.24 -11.66,-36.94 -29.28,-68.28 -51.99,-94.09 -22.71,-26.32 -52.6,-46.53 -88.38,-61.2 -36.37,-14.15 -77.99,-21.24 -126.1,-21.24 -61.03,0 -122.14,17.18 -184.58,52.13 -61.7,34.36 -126.7,84.95 -193.63,150.72l0 879.15c0,9.58 -3.88,18.21 -11.73,25.81 -7.1,7.59 -20.09,13.63 -38.92,18.73 -18.23,4.49 -42.96,8.55 -72.83,11.05 -30.56,2.58 -69.55,3.54 -116.39,3.54 -46.77,0 -85.76,-0.96 -116.32,-3.54 -29.87,-2.51 -54.6,-6.56 -72.76,-11.05 -18.82,-5.1 -31.82,-11.14 -39.06,-18.73 -7.77,-7.6 -11.66,-16.23 -11.66,-25.81l0 -1323.26c0,-9.66 3.29,-18.21 9.78,-25.8 5.91,-7.59 17.56,-13.64 33.85,-18.73 16.88,-4.57 37.72,-8.63 63.64,-11.14 25.92,-2.51 59.1,-3.54 98.16,-3.54 40.94,0 74.1,1.03 100.7,3.54 26.59,2.51 47.44,6.56 62.46,11.14 14.26,5.09 24.58,11.14 31.15,18.73 6.5,7.59 9.71,16.14 9.71,25.8l0 152.71c93.61,-78.9 189.15,-137.59 286.63,-177.04 96.82,-39.45 198.26,-59.14 303.52,-59.14 115.63,0 213.12,14.67 292.45,44.46 79.26,29.34 142.98,69.83 192.44,120.92 48.63,50.59 83.81,110.32 105.18,178.59 21.44,68.28 32.49,150.19 32.49,245.84l0 816.92zm2052.59 -699.61c0,45.57 -13.07,78.9 -39.07,100.65 -25.91,21.76 -61.77,32.89 -107.86,32.89l-1034.63 0c0,56.19 8.45,106.77 26,152.77 16.95,45.57 44.22,84.51 81.28,116.36 37.65,31.86 85.68,56.12 144.92,72.85 59.09,16.67 129.31,25.3 211.86,25.3 83.81,0 157.25,-4.57 220.97,-14.16 63.05,-9.66 118.25,-19.76 164.42,-31.41 46.1,-11.58 84.49,-21.75 114.97,-31.34 30.63,-9.58 55.35,-14.15 74.1,-14.15 11.73,0 21.51,1.54 28.61,5.09 7.84,3.54 14.26,9.59 19.49,18.66 4.56,8.63 8.45,21.31 10.46,37.46 1.87,16.22 2.54,36.94 2.54,61.19 0,21.76 -0.67,40.49 -1.94,55.68 -1.27,15.19 -3.29,28.31 -5.83,38.93 -2.55,11.14 -5.91,20.2 -11.14,27.28 -5.16,7.6 -11.66,14.68 -20.02,21.76 -8.44,6.63 -30.63,16.22 -67.67,28.39 -37.06,12.09 -83.81,23.73 -140.96,35.39 -57.22,11.65 -122.22,21.75 -195.65,30.31 -73.5,8.63 -152.09,13.2 -235.98,13.2 -151.35,0 -283.34,-14.68 -397.04,-44.54 -113.1,-29.35 -207.9,-74.32 -284.69,-134.56 -76.05,-60.17 -132.53,-136.56 -170.18,-228.14 -37.05,-92.02 -55.95,-199.75 -55.95,-323.19 0,-117.38 19.57,-223.12 59.17,-317.65 38.99,-94.09 96.13,-174.02 171.51,-239.79 74.78,-65.78 165.69,-115.84 272.96,-150.27 107.87,-34.88 228.81,-52.05 363.28,-52.05 142.39,0 263.85,16.14 364.7,49.03 101.37,32.36 183.84,77.94 248.83,135.6 64.31,57.66 112.42,126.46 142.98,205.35 30.55,78.9 45.56,164.88 45.56,258l0 59.14zm-464.05 -106.17c3.89,-104.71 -23.37,-187.22 -81.28,-246.87 -57.89,-60.24 -146.78,-90.03 -267.72,-90.03 -61.11,0 -114.45,9.07 -159.27,26.76 -45.41,17.7 -83.14,41.52 -113.1,71.83 -29.8,30.38 -52.59,65.77 -68.21,106.77 -16.28,41.44 -25.4,84.94 -27.94,131.54l717.51 0zm1852.99 675.78c0,43.51 -3.36,76.91 -10.46,100.14 -7.17,23.3 -16.28,39.44 -27.94,48.59 -11.05,9.58 -27.94,18.21 -50.05,25.29 -22.78,7.59 -48.78,14.15 -78.66,19.17 -29.21,5.61 -61.7,9.66 -96.9,12.68 -35.03,3.03 -70.14,4.57 -105.85,4.57 -94.87,0 -177.49,-9.66 -247.63,-28.39 -69.55,-18.65 -127.37,-47.48 -173.46,-86.49 -45.57,-38.93 -79.34,-87.97 -100.85,-147.69 -21.37,-59.14 -32.5,-129.48 -32.5,-210.44l0 -677.27 -205.95 0c-24.06,0 -42.88,-11.65 -55.2,-34.95 -13.07,-23.22 -19.5,-62.23 -19.5,-116.8 0,-28.83 1.19,-53.16 4.48,-72.85 3.29,-19.76 8.45,-35.46 15.02,-47.04 5.75,-11.14 14.19,-19.25 23.98,-24.34 9.04,-5.02 20.85,-7.59 33.17,-7.59l204 0 0 -295.9c0,-9.58 3.36,-18.73 10.46,-26.76 7.17,-7.59 20.16,-14.15 38.32,-19.76 18.23,-5.53 43.63,-9.58 74.78,-12.09 31.15,-2.59 69.55,-3.61 115.64,-3.61 46.84,0 85.75,1.02 117.05,3.61 31.16,2.51 55.89,6.56 74.03,12.09 17.56,5.61 30.56,12.17 37.73,19.76 7.76,8.04 11.65,17.18 11.65,26.76l0 295.9 368.51 0c12.99,0 24.06,2.58 33.16,7.59 9.79,5.09 17.56,13.2 24.06,24.34 6.42,11.58 10.98,27.28 14.19,47.04 3.36,19.69 4.7,44.02 4.7,72.85 0,54.57 -6.57,93.58 -18.9,116.8 -13.07,23.3 -31.23,34.95 -55.28,34.95l-370.45 0 0 621.15c0,72.34 14.35,126.46 43.56,162.37 29.28,35.9 81.2,54.12 155.97,54.12 25.4,0 48.11,-1.55 68.29,-5.09 20.09,-3.54 38.32,-7.52 53.93,-12.1 16.21,-4.05 29.28,-8.11 40.27,-11.65 10.38,-3.54 20.84,-5.09 29.28,-5.09 7.76,0 14.94,1.54 22.04,5.09 6.57,3.54 12.4,10.1 16.28,20.72 3.21,10.1 7.1,24.34 10.31,42.03 3.36,18.21 4.7,40.41 4.7,68.28z"/>
   <path class="fil1" d="M5591.31 903.81c483.39,-356.27 -1395.03,-491.98 -4201.25,-541.15 1806.77,85.82 3453.02,208.98 4201.25,541.15z"/>
   <path class="fil1" d="M7640.13 942.78c621.05,-457.71 -1792.28,-632.07 -5397.59,-695.24 2321.26,110.27 4436.3,268.5 5397.59,695.24z"/>
   <path class="fil1" d="M10050.83 1013.18c807.36,-595.02 -2329.94,-821.69 -7016.78,-903.8 3017.6,143.33 5767.12,349.03 7016.78,903.8z"/>
   <path class="fil1" d="M12553.29 995.92c935.91,-655.67 -2700.94,-905.44 -8134.09,-995.92 3498.11,157.95 6685.45,384.6 8134.09,995.92z"/>
   <path class="fil1" d="M291.64 3949.28l1702.1 0.2c141.23,0.04 257.01,-149.87 257.25,-333.14l0 -0.04c0.25,-183.19 -115.13,-333.1 -256.36,-333.14l-1702.11 -0.2c-141.22,0 -257,149.87 -257.25,333.1l0 0.04c-0.24,183.23 115.14,333.14 256.37,333.18z"/>
   <path class="fil2" d="M2927.73 3949.24l1702.1 0.24c141.2,0 257.01,-149.91 257.25,-333.14l0 -0.04c0.24,-183.23 -115.14,-333.14 -256.37,-333.14l-1702.1 -0.2c-141.23,-0.04 -257.01,149.87 -257.25,333.06l0 0.04c-0.24,183.27 115.14,333.18 256.37,333.18z"/>
   <path class="fil3" d="M5564 3949.24l1702.11 0.24c141.23,0 257,-149.91 257.25,-333.14l0 -0.04c0.24,-183.23 -115.14,-333.14 -256.37,-333.14l-1702.1 -0.2c-141.23,-0.04 -257.01,149.87 -257.25,333.06l0 0.04c-0.25,183.27 115.14,333.18 256.36,333.18z"/>
   <path class="fil4" d="M8327.66 3949.24l1702.13 0.24c141.2,0 257.01,-149.91 257.25,-333.14l0 -0.04c0.22,-183.23 -115.17,-333.14 -256.36,-333.14l-1702.14 -0.2c-141.2,-0.04 -256.97,149.87 -257.22,333.06l0 0.04c-0.24,183.27 115.14,333.18 256.34,333.18z"/>
   <path class="fil5" d="M10963.94 3949.24l1702.13 0.24c141.2,0 257.01,-149.91 257.25,-333.14l0 -0.04c0.25,-183.23 -115.17,-333.14 -256.36,-333.14l-1702.11 -0.2c-141.23,-0.04 -257,149.87 -257.25,333.06l0 0.04c-0.24,183.27 115.14,333.18 256.34,333.18z"/>
   <path class="fil6" d="M11902.41 3625.02c-14.04,1.24 -32.48,2.4 -55.59,3.47 -116.06,4.52 -192,11.22 -227.47,20.01 -25.26,6.43 -37.89,14.98 -37.89,25.66 0,8.9 9.55,16.29 29.08,22.43 19.27,6.05 44.86,9.09 76.51,9.09 34.9,0 67.88,-2.77 98.7,-8.37 31.08,-5.54 54.17,-12.67 69.29,-21.38 15.46,-8.72 28.92,-22.35 40.72,-40.86l6.64 -10.06zm-220.33 -69.98l-226.06 -6.16c25.84,-24.56 70.95,-43.71 135.34,-57.5 64.31,-13.8 149.3,-20.77 255.48,-20.77 110.26,0 192.01,7.23 244.51,21.57 52.85,14.42 79.18,31.95 79.18,52.69 0,8.37 -2.16,17.27 -6.81,26.63 -4.73,9.44 -20.69,34.18 -48.19,74.25 -22.84,33.11 -34.06,56.35 -34.06,69.64 0,11.84 6.56,24.91 19.52,39.42l-225.81 0c-8.81,-10.05 -14.3,-20.57 -16.53,-31.33 -33.82,12.18 -72.87,21.62 -116.9,28.29 -43.95,6.7 -88.48,9.98 -133.1,9.98 -70.95,0 -129.52,-7.55 -175.71,-22.7 -46.2,-15.14 -69.29,-34.53 -69.29,-58.3 0,-26.55 25.25,-47.83 76.18,-63.67 50.85,-15.95 141.66,-25.55 272.26,-28.86 110.25,-3.01 184.03,-6.58 221.08,-10.75 9.64,-10.51 14.63,-18.88 14.63,-25.12 0,-8.1 -9.89,-14.77 -29.99,-20.2 -19.77,-5.43 -49.52,-8.1 -88.81,-8.1 -41.29,0 -74.02,2.67 -97.96,8.1 -23.93,5.33 -40.38,12.99 -48.93,22.89z"/>
   <path class="fil6" d="M9114.02 3481.05l217.27 0 -32.73 52.15c79.75,-39.43 166.15,-59.12 259.38,-59.12 32.98,0 68.46,2.69 106.17,8.12l-89.14 61.24c-20.94,-2.39 -43.46,-3.65 -67.13,-3.65 -39.89,0 -80.26,4.92 -121.55,14.71 -41.21,9.79 -73.44,22.78 -96.53,39.16 -23.35,16.3 -46.2,42.2 -68.71,77.64l-55.33 86.98 -230.97 0 179.29 -277.24z"/>
   <path class="fil6" d="M5948.46 3803.97l247.5 -382.5 230.8 0 -84.5 127.14c42.7,-10.4 82.58,-17.81 119.39,-22.27 37.14,-4.35 77.6,-6.59 121.3,-6.59 90.48,0 163.08,9.82 217.84,29.48 54.42,19.58 81.67,48.17 81.67,85.74 0,25.28 -12.96,49.87 -38.55,73.72 -25.5,23.77 -59.65,43.17 -102.51,58.15 -42.96,14.85 -87.74,25.98 -135.1,33.18 -47.03,7.21 -96.54,10.87 -148.22,10.87 -122.96,0 -213.1,-17.27 -270.59,-51.72l-29.99 44.78 -209.03 0zm310.22 -112.65c0,18.8 16.2,34.11 48.93,45.86 32.74,11.75 71.28,17.64 115.57,17.64 38.71,0 75.85,-4.54 111.32,-13.71 35.23,-9.09 64.64,-23.69 88.32,-43.71 23.34,-19.95 35.23,-40.16 35.23,-60.54 0,-19.77 -15.71,-35.37 -47.36,-46.67 -31.57,-11.33 -69.87,-16.99 -114.65,-16.99 -58.32,0 -108.67,8.79 -150.72,26.32 -57.73,24.05 -86.65,54.68 -86.65,91.8z"/>
   <g>
    <polygon class="fil6" points="3698.44,3530.19 3929.49,3530.19 3750.12,3807.44 3519.15,3807.44 "/>
    <polygon class="fil6" points="3766.65,3424.94 3997.37,3424.94 3953.67,3492.78 3722.62,3492.78 "/>
   </g>
   <path class="fil6" d="M1373.32 3533.68l-34.64 55 -163.35 0 -143.56 222.24 -231.05 0 143.81 -222.24 -128.94 0 34.64 -55 129.78 0 18.44 -28.51c14.88,-23.4 28.91,-39.16 42.37,-47.36 18.11,-11.14 45.36,-19.93 81.42,-26.52 36.31,-6.51 83.33,-9.79 140.82,-9.79 70.37,0 144.65,4.09 222.49,12.37l-44.28 52.8c-54.75,-6.05 -99.28,-9.09 -133.1,-9.09 -26.17,0 -45.69,2.77 -58.32,8.37 -7.98,3.66 -16.78,13.1 -26.41,28.4l-12.63 19.34 162.5 0z"/>
   <path class="fil7" d="M8594.63 4745.74c0,3.14 -2.54,4.79 -7.6,4.79l-56.02 0.43c-2.75,0 -4.27,0 -4.51,0 -3.51,-1.35 -23.36,-34.12 -59.65,-98.28 -36.43,-64.17 -55.13,-96.43 -56.26,-96.72 -4.09,3.43 -24.19,37.27 -60.23,101.43 -34.85,62.38 -53.84,93.57 -57.23,93.57l-57.24 0c-5.25,0 -7.97,-2.22 -7.97,-6.51l0 -58.36c0,-5.09 21.83,-41.28 65.45,-108.3 43.58,-67.24 65.39,-103.51 65.39,-108.87 0,-5.94 -21.68,-42.77 -65.03,-110.81 -43.37,-67.88 -65.08,-103.94 -65.08,-108.08l0 -62.1c0,-3.72 3.14,-5.65 9.25,-5.65 6.45,0 16.13,0.28 29.04,0.78 12.77,0.57 22.39,0.86 28.87,0.86 1.18,0 5.4,5.94 12.82,17.96 21.51,38.48 54.15,96.06 97.74,172.46 1.15,1.79 3.17,3.86 5.83,5.94 3.3,-1.94 23.15,-35.34 59.56,-100.44 36.1,-64.02 55.71,-96.06 58.89,-96.06l54.36 0c5.99,0 8.95,1.93 8.95,5.65l0 62.24c0,6.79 -21.59,43.49 -64.96,110.3 -43.34,66.74 -65.09,101.94 -65.09,105.51 0,4.29 21.87,40.92 65.46,109.74 43.55,69.03 65.27,105.86 65.27,110.66l0 57.87zm244.79 -68.75c0,5.94 -0.49,13.95 -1.4,24.18 -1.04,12.52 -1.78,20.68 -2.02,24.4 -0.25,4.87 -0.55,7.72 -1.04,8.8 -0.97,2.01 -3.02,3.79 -6.44,5.72 -18.82,10.59 -48.29,15.81 -88.6,15.81 -53.21,0 -79.99,-28.54 -80.17,-85.69 0,-22.89 0.27,-57.23 1,-103.23 0.67,-45.92 1.04,-80.4 1.04,-103.37 0,-11.01 -4.67,-16.95 -14.05,-17.74 -8.58,0 -16.91,-0.15 -25.16,-0.43 -4.8,-1.36 -7.3,-12.45 -7.3,-33.26 0,-7.72 0.49,-16.02 1.4,-24.68 0.73,-6.51 4.4,-10.37 11.08,-11.73 5.59,0 11.28,-0.15 16.8,-0.43 10.53,-0.57 15.82,-6.08 15.82,-16.6 0,-10.72 -0.25,-27.18 -0.64,-49.36 -0.49,-22.1 -0.73,-38.7 -0.73,-49.72 0,-19.74 3.14,-29.54 9.62,-29.54 1.99,0 23.48,4.15 64.22,12.45 5.29,0.86 7.91,3.72 7.91,8.8 0,12.02 -0.85,29.83 -2.51,53.58 -1.65,23.74 -2.41,41.56 -2.41,53.44 0,7.79 3.14,11.66 9.37,11.66l83.04 0c3.91,0 5.84,1.72 5.84,4.87 0,3.15 -0.43,8.44 -1.28,15.59 -0.76,7.01 -1.13,12.45 -1.13,15.88 0,4.01 0.13,10.23 0.37,18.6 0.18,8.31 0.27,14.53 0.27,18.53 0,5.09 -3.14,7.72 -9.62,7.72 -9.25,0 -23.11,-0.71 -41.81,-2.07 -18.51,-1.36 -32.4,-2.08 -41.65,-2.08 -1.78,0 -3.21,7.72 -4.12,23.03 -0.49,19.17 -0.73,46 -0.73,80.61l0 60.31c0,23.17 1.89,39.33 5.53,48.42 5.44,14.09 16.67,21.11 33.87,21.11 6.99,0 17.34,-1.8 31.09,-5.37 13.65,-3.58 23.89,-5.37 30.46,-5.37 2.69,0 4.09,2.29 4.09,7.15zm245.86 -305.8c0,29.68 -1.78,56.73 -5.17,80.98 -0.67,6.23 -3.05,9.3 -6.96,9.3 -4.8,0 -12.03,-0.57 -21.77,-1.79 -9.87,-1.28 -17.32,-1.87 -22.36,-1.87 -28.98,0 -47.55,9.59 -55.53,28.76 -4.83,11.59 -7.3,35.69 -7.3,72.32l0 44.57c0,15.02 0.46,37.91 1.37,68.67 0.98,30.69 1.41,53.58 1.41,68.75 0,7.15 -2.57,10.94 -7.85,10.94 -7.05,0 -17.72,-0.14 -32.1,-0.43 -14.3,-0.28 -25.07,-0.43 -32.13,-0.43 -5.19,0 -7.84,-3.29 -7.84,-10.08 0,-21.82 0.3,-54.79 0.88,-98.64 0.61,-43.93 0.79,-77.04 0.79,-99.08 0,-66.52 -5.1,-120.1 -15.45,-160.52 -0.49,-2.22 -0.73,-3.72 -0.73,-4.8 0,-3.36 1.52,-5.58 4.51,-6.93 8.35,-1.07 20.16,-2.79 35.43,-4.94 24.53,-5.59 35.91,-8.31 34.09,-8.31 3.6,0 6.11,8.02 7.14,24.04 1.19,16.1 3.27,24.11 6.26,24.11 0.43,0 1.04,-0.28 1.72,-0.78 9.44,-7.08 18.81,-14.09 28.31,-21.32 10.35,-7.29 20.96,-12.66 31.82,-16.24 8.99,-3.22 20.46,-4.87 34.55,-4.87 18.02,0 26.9,2.94 26.9,8.59zm329.12 162.52c0,19.89 -7.27,33.26 -21.99,40.06 -9.99,4.29 -81.07,12.31 -213.42,24.04 2.93,23.68 14.13,43.86 33.5,60.59 18.45,15.81 38.18,23.83 59.32,23.83 36.4,0 69.75,-13.66 100.09,-40.85 3.78,-3.58 7.35,-7.01 11.02,-10.44 1.89,0 3.05,0.21 3.66,0.78 0.61,0.57 4.92,9.8 12.89,27.9 8.1,18.25 12.13,27.9 12.13,29.26 0,1.65 -1.9,4.64 -5.54,9.23 -33.69,41.84 -76.9,62.8 -129.77,62.8 -53.2,0 -95.65,-18.67 -127.38,-56.01 -31.58,-37.27 -47.43,-87.12 -47.43,-149.36 0,-55.59 15.18,-103.87 45.38,-145.14 31.88,-42.93 70.91,-64.31 117.31,-64.31 43.13,0 79.04,18.6 107.96,55.73 28.19,36.19 42.27,80.19 42.27,131.91zm-81.73 -24.54c0,-22.31 -7.54,-42.2 -22.57,-59.44 -15.06,-17.31 -31.98,-25.82 -50.85,-25.82 -21.14,0 -39.84,9.94 -56.26,29.82 -16.46,19.81 -24.68,42.2 -24.68,66.88 0,5.66 4.09,8.45 12.3,8.45 34.12,0 74.71,-4.01 122.08,-11.88 13.29,-2.22 19.98,-4.87 19.98,-8.02zm653.28 226.91c0,10.44 -2.69,15.74 -7.98,15.74 -3.42,0 -8.71,-0.43 -15.61,-1.29 -7.05,-0.78 -12.34,-1.21 -16.12,-1.21 -3.82,0 -9.75,0.29 -17.48,0.79 -7.84,0.57 -13.77,0.85 -17.59,0.85 -4.9,0 -7.3,-6.36 -7.3,-19.02 0,-12.45 0.46,-30.91 1.25,-55.66 0.85,-24.68 1.15,-43.21 1.15,-55.59 0,-68.16 -0.18,-106.3 -0.67,-114.16 -1.74,-27.69 -6.56,-46.86 -14.42,-57.37 -8.95,-11.31 -24.92,-16.95 -47.85,-16.95 -14.45,0 -30.64,8.08 -48.71,24.25 -18.82,16.95 -28.56,33.7 -29.29,50.08 -0.91,21.17 -1.4,59.51 -1.4,115.37 0,13.24 0.49,32.98 1.4,59.52 0.97,26.32 1.34,46.22 1.34,59.45 0,7.15 -2.02,10.94 -6.14,10.94 -4.21,0 -10.23,-0.43 -18.11,-1.29 -7.98,-0.78 -13.93,-1.21 -18.09,-1.21 -3.75,0 -9.01,0.29 -16.18,0.79 -7.18,0.57 -12.56,0.85 -16.19,0.85 -4.64,0 -6.96,-3.86 -6.96,-11.73 0,-12.95 0.37,-32.4 1.04,-58.51 0.73,-25.97 1.09,-45.42 1.09,-58.37l0 -97.57c0,-30.48 -3.08,-52.14 -9.31,-65.1 -8.71,-18.39 -25.38,-27.47 -49.94,-27.47 -14.42,0 -31.58,7.15 -51.55,21.39 -21.93,15.74 -33.01,31.4 -33.01,47.28l0 118.17c0,13.52 0.12,33.63 0.36,60.3 0.24,26.75 0.37,46.65 0.37,59.88 0,7.86 -2.69,11.73 -7.98,11.73l-64.04 0c-4.58,0 -6.97,-3.57 -6.97,-10.87 0,-21.81 0.13,-54.5 0.37,-98.28 0.24,-43.78 0.37,-76.47 0.37,-98.29 0,-49.22 -4.55,-98.36 -13.74,-147.35 -0.67,-3.44 -1.04,-6.37 -1.04,-8.45 0,-3.57 1.04,-5.51 3.18,-6.01 8.46,-1.14 20.86,-3.22 37.38,-6.22 7.6,-2.79 19,-5.8 34.15,-9.16l2.81 -0.35c2.72,0 5.29,9.51 7.78,28.54 2.33,19.17 4.55,28.68 6.33,28.68 0,0 5.74,-6.08 17.22,-17.96 13.52,-13.73 27.06,-24.82 40.56,-32.97 19.48,-11.95 38.97,-17.89 58.51,-17.89 52.87,0 86.4,25.4 100.91,76.26 14.17,-21.61 31.82,-39.41 52.96,-53.51 22.42,-15.17 44.74,-22.75 66.74,-22.75 42.5,0 71.86,14.46 88.05,43.57 11.76,21.68 17.66,55.8 17.66,102.43 0,8.8 -0.25,22.61 -0.74,41.13 -0.42,18.6 -0.66,32.41 -0.66,41.21 0,17.02 0.3,42.56 1.03,76.61 0.73,34.12 1.04,59.73 1.04,76.75zm359.28 -202.37c0,19.89 -7.23,33.26 -21.96,40.06 -9.98,4.29 -81.06,12.31 -213.42,24.04 2.93,23.68 14.14,43.86 33.51,60.59 18.45,15.81 38.18,23.83 59.28,23.83 36.43,0 69.79,-13.66 100.12,-40.85 3.76,-3.58 7.36,-7.01 11.02,-10.44 1.9,0 3.03,0.21 3.64,0.78 0.6,0.57 4.95,9.8 12.91,27.9 8.1,18.25 12.13,27.9 12.13,29.26 0,1.65 -1.9,4.64 -5.56,9.23 -33.66,41.84 -76.9,62.8 -129.74,62.8 -53.24,0 -95.65,-18.67 -127.39,-56.01 -31.61,-37.27 -47.43,-87.12 -47.43,-149.36 0,-55.59 15.18,-103.87 45.35,-145.14 31.92,-42.93 70.95,-64.31 117.34,-64.31 43.13,0 79.04,18.6 107.97,55.73 28.19,36.19 42.23,80.19 42.23,131.91zm-81.7 -24.54c0,-22.31 -7.54,-42.2 -22.6,-59.44 -15.03,-17.31 -31.94,-25.82 -50.82,-25.82 -21.14,0 -39.83,9.94 -56.26,29.82 -16.46,19.81 -24.68,42.2 -24.68,66.88 0,5.66 4.09,8.45 12.31,8.45 34.09,0 74.71,-4.01 122.08,-11.88 13.28,-2.22 19.97,-4.87 19.97,-8.02zm687.12 148.51c0,3.15 -2.2,7.86 -6.56,13.66 -44.74,60.87 -100.18,91.2 -166.3,91.2 -68.87,0 -124.08,-29.54 -165.28,-88.48 -38.67,-55.01 -57.91,-123.61 -57.91,-206.16 0,-82.34 19.61,-151.37 58.98,-206.87 41.78,-59.73 97.01,-89.7 165.75,-89.7 69.66,0 123.42,27.61 161.59,82.83 3.67,5.66 5.56,10.51 5.56,14.23 0,4.5 -6.17,18.03 -18.32,40.56 -12.25,22.46 -19.61,33.84 -22.24,33.84 -2.93,0 -9.98,-6.65 -21.01,-19.88 -13.53,-16.17 -26.3,-28.33 -38.3,-36.49 -19.73,-13.23 -41.6,-19.81 -65.46,-19.81 -45.41,0 -80.8,20.24 -106.06,60.94 -22.54,36.49 -33.78,82.27 -33.78,137.63 0,55.15 11.12,101.43 33.47,138.7 25.2,41.78 60.47,62.6 105.7,62.6 22.54,0 44.26,-6.58 65.21,-19.74 13.71,-8.52 27.83,-20.82 42.03,-36.7 12,-13.09 18.45,-19.74 19.6,-19.74 1.46,0 8.95,10.65 22.69,32.04 13.71,21.39 20.65,33.12 20.65,35.34zm348.79 -103.8c0,56.3 -15.79,104.51 -47.13,144.36 -32.16,41.27 -71.87,61.8 -119.36,61.8 -47.8,0 -87.63,-20.38 -119.75,-61.37 -31.43,-39.64 -47.13,-87.63 -47.13,-143.92 0,-56.3 15.7,-104.37 47.13,-143.92 32.37,-40.49 72.2,-60.59 119.75,-60.59 47.25,0 86.83,20.1 119.06,60.59 31.52,39.26 47.43,87.05 47.43,143.06zm-72.6 0.86c0,-32.83 -8.59,-60.88 -25.87,-84.06 -17.84,-24.61 -40.5,-36.84 -68.01,-36.84 -27.58,0 -50.36,12.16 -68.45,36.4 -17.28,23.46 -25.86,51.65 -25.86,84.49 0,32.26 8.7,60.44 26.17,84.05 18.32,25.11 41.05,37.63 68.13,37.63 27.28,0 49.94,-12.52 68.01,-37.63 17.28,-23.6 25.87,-51.78 25.87,-84.05zm424.4 188.05c0,5.94 -2.38,9.02 -6.93,9.02 -7.48,0 -18.87,-0.14 -33.93,-0.43 -15.03,-0.28 -26.29,-0.43 -33.97,-0.43 -4.09,0 -6.23,-3.86 -6.23,-11.73 0,-13.23 0.37,-33.26 1.04,-60.3 0.73,-26.9 1.09,-47.22 1.09,-60.59 0,-10.87 -0.12,-26.89 -0.36,-48.43 -0.25,-21.39 -0.37,-37.55 -0.37,-48.28 0,-30.76 -3.75,-52.44 -11.27,-65.17 -9.32,-15.02 -26.17,-22.6 -50.94,-22.6 -11.46,0 -27.4,7.58 -47.86,22.74 -21.5,15.88 -32.28,30.11 -32.28,42.49l0 242.64c0,6.58 -2.26,10.09 -6.57,10.09 -7.29,0 -18.32,-0.14 -33.01,-0.43 -14.78,-0.28 -25.74,-0.43 -33.1,-0.43 -4.83,0 -7.3,-3 -7.3,-9.23 0,-21.39 0.37,-53.29 0.95,-95.92 0.54,-42.63 0.79,-74.68 0.79,-96.35 0,-57.37 -5.05,-110.38 -15.15,-158.8 -0.67,-2.51 -1.04,-4.29 -1.04,-5.23 0,-2.79 1.52,-4.71 4.46,-5.79 1.62,-0.15 14.66,-2.8 39.3,-7.51 24.74,-4.65 37.66,-7.01 38.79,-7.01 1.27,0 2.26,2.22 2.68,6.51 1.22,16.66 3.79,33.62 7.91,50.64 11.94,-11.08 27.7,-24.89 47.07,-41.27 24.13,-17.23 47.49,-25.82 69.9,-25.82 43.13,0 72.6,14.67 88.36,44.06 11.76,21.61 17.6,56.45 17.6,104.73 0,8.37 -0.25,21.1 -0.55,38.34 -0.36,17.23 -0.49,30.26 -0.49,38.91 0,17.96 0.25,44.99 0.67,80.76 0.49,35.83 0.73,62.88 0.73,80.82zm368.61 0c0,5.94 -2.36,9.02 -6.94,9.02 -7.47,0 -18.87,-0.14 -33.9,-0.43 -15.06,-0.28 -26.29,-0.43 -34,-0.43 -4.05,0 -6.2,-3.86 -6.2,-11.73 0,-13.23 0.37,-33.26 1.04,-60.3 0.73,-26.9 1.1,-47.22 1.1,-60.59 0,-10.87 -0.13,-26.89 -0.37,-48.43 -0.24,-21.39 -0.36,-37.55 -0.36,-48.28 0,-30.76 -3.79,-52.44 -11.28,-65.17 -9.31,-15.02 -26.17,-22.6 -50.97,-22.6 -11.43,0 -27.4,7.58 -47.86,22.74 -21.47,15.88 -32.25,30.11 -32.25,42.49l0 242.64c0,6.58 -2.26,10.09 -6.6,10.09 -7.29,0 -18.32,-0.14 -32.98,-0.43 -14.81,-0.28 -25.74,-0.43 -33.13,-0.43 -4.8,0 -7.3,-3 -7.3,-9.23 0,-21.39 0.37,-53.29 0.98,-95.92 0.55,-42.63 0.79,-74.68 0.79,-96.35 0,-57.37 -5.07,-110.38 -15.18,-158.8 -0.64,-2.51 -1.01,-4.29 -1.01,-5.23 0,-2.79 1.5,-4.71 4.43,-5.79 1.65,-0.15 14.69,-2.8 39.33,-7.51 24.71,-4.65 37.63,-7.01 38.79,-7.01 1.28,0 2.26,2.22 2.69,6.51 1.21,16.66 3.75,33.62 7.9,50.64 11.95,-11.08 27.71,-24.89 47.07,-41.27 24.1,-17.23 47.49,-25.82 69.91,-25.82 43.09,0 72.56,14.67 88.32,44.06 11.77,21.61 17.63,56.45 17.63,104.73 0,8.37 -0.24,21.1 -0.55,38.34 -0.36,17.23 -0.48,30.26 -0.48,38.91 0,17.96 0.24,44.99 0.67,80.76 0.48,35.83 0.7,62.88 0.7,80.82zm356.62 -209.09c0,19.89 -7.23,33.26 -21.96,40.06 -9.98,4.29 -81.06,12.31 -213.42,24.04 2.94,23.68 14.11,43.86 33.48,60.59 18.45,15.81 38.18,23.83 59.31,23.83 36.41,0 69.79,-13.66 100.12,-40.85 3.76,-3.58 7.36,-7.01 11.02,-10.44 1.87,0 3.03,0.21 3.64,0.78 0.61,0.57 4.95,9.8 12.92,27.9 8.09,18.25 12.12,27.9 12.12,29.26 0,1.65 -1.9,4.64 -5.56,9.23 -33.66,41.84 -76.9,62.8 -129.74,62.8 -53.24,0 -95.65,-18.67 -127.39,-56.01 -31.61,-37.27 -47.43,-87.12 -47.43,-149.36 0,-55.59 15.15,-103.87 45.35,-145.14 31.92,-42.93 70.95,-64.31 117.34,-64.31 43.1,0 79.05,18.6 107.97,55.73 28.19,36.19 42.23,80.19 42.23,131.91zm-81.7 -24.54c0,-22.31 -7.54,-42.2 -22.6,-59.44 -15.03,-17.31 -31.97,-25.82 -50.85,-25.82 -21.11,0 -39.8,9.94 -56.26,29.82 -16.43,19.81 -24.65,42.2 -24.65,66.88 0,5.66 4.06,8.45 12.31,8.45 34.09,0 74.71,-4.01 122.08,-11.88 13.25,-2.22 19.97,-4.87 19.97,-8.02zm370.68 -125.03c0,5.94 -2.62,19.17 -7.84,39.62 -5.32,20.53 -9.07,30.76 -11.08,30.76 -10.35,-5.36 -20.77,-10.58 -31.25,-16.02 -10.47,-5.37 -21.84,-8.01 -34.14,-8.01 -28.32,0 -51.83,12.3 -70.77,36.77 -18.75,24.54 -28.19,53.51 -28.19,86.76 0,32.83 9.44,61.3 28.19,85.27 19.31,24.75 42.89,37.13 70.64,37.13 15.34,0 30.52,-4.36 45.42,-13.23 14.93,-8.8 21.5,-13.23 19.66,-13.23 2.93,0 6.32,11.3 9.93,33.91 3.42,20.45 5.16,34.55 5.16,42.41 0,8.23 -13.37,16.38 -40.22,24.54 -22.6,6.79 -39.16,10.08 -49.94,10.08 -47.37,0 -87.32,-20.67 -119.85,-62.23 -31.94,-40.42 -47.92,-88.78 -47.92,-144.79 0,-57.15 15.67,-105.72 46.92,-145.57 32.12,-40.99 72.2,-61.44 120.12,-61.44 32.22,0 61.69,9.58 88.23,28.75 4.55,3.29 6.93,6.08 6.93,8.52zm234.56 292.85c0,5.94 -0.48,13.95 -1.4,24.18 -1.03,12.52 -1.77,20.68 -2.02,24.4 -0.24,4.87 -0.55,7.72 -1.03,8.8 -0.98,2.01 -3.06,3.79 -6.45,5.72 -18.81,10.59 -48.28,15.81 -88.6,15.81 -53.23,0 -80.01,-28.54 -80.2,-85.69 0,-22.89 0.31,-57.23 1.04,-103.23 0.67,-45.92 1.03,-80.4 1.03,-103.37 0,-11.01 -4.66,-16.95 -14.04,-17.74 -8.62,0 -16.95,-0.15 -25.17,-0.43 -4.8,-1.36 -7.29,-12.45 -7.29,-33.26 0,-7.72 0.48,-16.02 1.4,-24.68 0.73,-6.51 4.36,-10.37 11.08,-11.73 5.59,0 11.24,-0.15 16.79,-0.43 10.54,-0.57 15.82,-6.08 15.82,-16.6 0,-10.72 -0.24,-27.18 -0.67,-49.36 -0.48,-22.1 -0.73,-38.7 -0.73,-49.72 0,-19.74 3.18,-29.54 9.62,-29.54 2.02,0 23.52,4.15 64.26,12.45 5.29,0.86 7.9,3.72 7.9,8.8 0,12.02 -0.85,29.83 -2.5,53.58 -1.66,23.74 -2.45,41.56 -2.45,53.44 0,7.79 3.18,11.66 9.38,11.66l83.07 0c3.88,0 5.83,1.72 5.83,4.87 0,3.15 -0.42,8.44 -1.27,15.59 -0.8,7.01 -1.16,12.45 -1.16,15.88 0,4.01 0.12,10.23 0.36,18.6 0.19,8.31 0.31,14.53 0.31,18.53 0,5.09 -3.15,7.72 -9.62,7.72 -9.26,0 -23.12,-0.71 -41.81,-2.07 -18.51,-1.36 -32.4,-2.08 -41.66,-2.08 -1.77,0 -3.23,7.72 -4.15,23.03 -0.49,19.17 -0.7,46 -0.7,80.61l0 60.31c0,23.17 1.87,39.33 5.53,48.42 5.41,14.09 16.68,21.11 33.85,21.11 7.02,0 17.37,-1.8 31.12,-5.37 13.65,-3.58 23.89,-5.37 30.45,-5.37 2.69,0 4.09,2.29 4.09,7.15z"/>
   <path class="fil8" d="M-0 2713.34l0 -2269.16c0,-118.06 42.72,-205.93 128.24,-264.97 85.45,-59.03 196.59,-88.54 332.29,-88.54 138.91,0 252.19,28.84 338.71,87.2 86.58,58.35 130.38,146.9 130.38,266.31l0 2269.16c0,119.37 -43.8,207.92 -130.38,266.94 -86.52,59.03 -199.8,88.54 -338.71,88.54 -133.55,0 -243.63,-29.51 -330.15,-89.21 -86.58,-59.71 -130.38,-148.21 -130.38,-266.27z"/>
  </g>
 </g>
</svg>
