<?xml version="1.0" standalone="no"?>
<!DOCTYPE svg PUBLIC "-//W3C//DTD SVG 20010904//EN"
 "http://www.w3.org/TR/2001/REC-SVG-20010904/DTD/svg10.dtd">
<svg version="1.0" xmlns="http://www.w3.org/2000/svg"
 width="200.000000pt" height="92.000000pt" viewBox="0 0 200.000000 92.000000"
 preserveAspectRatio="xMidYMid meet">

<g transform="translate(0.000000,92.000000) scale(0.100000,-0.100000)"
fill="#000000" stroke="none">
<path d="M880 863 c269 -44 359 -61 485 -93 242 -62 394 -130 487 -220 48 -46
49 -47 63 -26 18 25 19 66 3 101 -35 77 -262 153 -598 199 -175 24 -557 58
-440 39z"/>
<path d="M628 823 c6 -2 18 -2 25 0 6 3 1 5 -13 5 -14 0 -19 -2 -12 -5z"/>
<path d="M785 800 c350 -64 569 -143 684 -246 l48 -43 12 25 c6 14 11 33 11
44 0 26 -46 78 -89 99 -120 60 -403 115 -696 135 l-80 6 110 -20z"/>
<path d="M605 750 c231 -42 406 -105 485 -177 l50 -45 12 27 c36 80 -105 148
-392 189 -58 8 -141 18 -185 21 l-80 5 110 -20z"/>
<path d="M400 715 c174 -33 312 -84 377 -139 33 -28 43 -25 43 10 0 48 -92 88
-270 117 -52 9 -124 18 -160 21 l-65 5 75 -14z"/>
<path d="M1056 405 c-9 -25 -7 -248 3 -263 5 -8 21 -12 37 -10 l29 3 0 140 0
140 -31 3 c-22 2 -33 -2 -38 -13z"/>
<path d="M567 374 c-4 -4 -7 -15 -7 -25 0 -9 -9 -19 -20 -22 -11 -3 -20 -12
-20 -21 0 -9 8 -16 20 -16 17 0 20 -7 20 -51 0 -50 12 -87 34 -101 18 -13 93
-9 104 5 15 17 2 32 -28 32 -23 0 -25 4 -28 58 l-3 57 31 0 c23 0 30 4 30 20
0 15 -7 20 -29 20 -23 0 -30 5 -33 23 -2 16 -11 23 -33 25 -17 2 -34 0 -38 -4z"/>
<path d="M1840 356 c0 -18 -6 -26 -22 -28 -31 -4 -34 -26 -4 -38 24 -9 26 -14
26 -70 0 -52 3 -62 24 -75 15 -10 40 -15 68 -13 35 2 43 7 43 23 0 15 -7 19
-30 20 -29 0 -30 1 -33 57 l-3 57 33 3 c44 4 45 32 1 36 -24 2 -33 9 -35 25
-2 17 -11 23 -35 25 -29 3 -33 0 -33 -22z"/>
<path d="M338 326 c-21 -7 -38 -9 -38 -4 0 5 -15 8 -32 6 l-33 -3 0 -95 0 -95
35 0 35 0 3 66 c3 64 4 67 34 80 49 20 62 4 66 -80 l3 -71 34 0 35 0 0 85 c0
77 -2 86 -23 100 -35 22 -78 26 -119 11z"/>
<path d="M794 320 c-47 -19 -69 -92 -44 -141 17 -30 64 -49 127 -49 75 0 103
8 103 30 0 15 -8 17 -68 12 -55 -3 -71 -1 -85 13 -9 9 -17 21 -17 26 0 5 41 9
90 9 l90 0 0 30 c0 19 -9 40 -25 55 -21 22 -33 25 -87 24 -35 0 -73 -4 -84 -9z
m107 -30 c10 -6 19 -17 19 -25 0 -11 -13 -15 -55 -15 -59 0 -64 4 -38 32 18
20 45 23 74 8z"/>
<path d="M1204 317 c-3 -8 -4 -52 -2 -98 l3 -84 35 0 35 0 5 70 c5 65 7 70 33
79 48 17 62 -1 65 -83 l3 -71 34 0 35 0 0 80 c0 67 -3 83 -20 100 -23 23 -93
27 -136 8 -22 -10 -28 -10 -32 0 -5 16 -51 15 -58 -1z"/>
<path d="M1561 316 c-45 -25 -65 -92 -40 -138 15 -28 69 -48 131 -48 70 0 98
9 98 29 0 15 -9 16 -65 13 -66 -4 -95 6 -95 34 0 10 23 14 88 16 l87 3 -2 30
c-4 50 -43 75 -116 75 -34 -1 -73 -7 -86 -14z m117 -28 c26 -26 13 -38 -38
-38 -37 0 -50 4 -50 15 0 29 64 47 88 23z"/>
<path d="M1228 93 c18 -4 22 -11 22 -38 0 -47 18 -54 22 -8 2 30 8 39 28 44
16 5 4 7 -35 7 -33 -1 -50 -3 -37 -5z"/>
<path d="M1459 95 c-4 -23 -1 -76 4 -82 4 -3 7 15 7 40 0 26 -2 47 -5 47 -3 0
-5 -2 -6 -5z"/>
<path d="M1353 65 c-12 -9 -20 -22 -17 -29 7 -19 51 -29 72 -16 14 8 12 9 -9
4 -15 -3 -30 -1 -33 5 -6 9 28 17 57 12 15 -2 6 19 -12 29 -26 13 -33 13 -58
-5z m52 -5 c4 -6 -5 -10 -20 -10 -15 0 -24 4 -20 10 3 6 12 10 20 10 8 0 17
-4 20 -10z"/>
<path d="M1518 69 c-44 -25 9 -74 54 -51 21 11 20 12 -10 6 -24 -4 -34 -2 -38
11 -9 22 10 40 33 30 16 -7 15 -9 -7 -16 -23 -7 -22 -7 8 -6 36 1 41 11 13 27
-24 12 -31 12 -53 -1z"/>
<path d="M1628 69 c-44 -25 9 -74 54 -51 21 11 20 12 -10 6 -24 -4 -34 -2 -38
11 -9 22 13 36 46 29 22 -4 22 -3 5 5 -26 13 -36 13 -57 0z"/>
<path d="M1738 73 c-36 -9 -21 -63 18 -63 24 0 54 19 54 35 0 8 -9 19 -19 25
-20 10 -25 11 -53 3z m49 -19 c8 -22 -11 -37 -36 -29 -23 7 -28 30 -8 38 23
10 38 7 44 -9z"/>
<path d="M1853 72 c-17 -2 -23 -10 -23 -27 0 -13 5 -27 10 -30 6 -3 10 5 10
18 0 25 23 42 41 31 5 -3 10 -17 10 -32 1 -23 2 -23 6 -5 9 45 53 55 53 12 0
-10 5 -19 10 -19 14 0 12 37 -2 47 -13 8 -75 11 -115 5z"/>
</g>
</svg>
